<svg xmlns="http://www.w3.org/2000/svg" viewBox="0 0 64 64" width="64" height="64">
  <defs>
    <linearGradient id="badge" x1="0" y1="0" x2="0" y2="1">
      <stop offset="0" stop-color="#f0a23a"/>
      <stop offset="1" stop-color="#e2603a"/>
    </linearGradient>
    <radialGradient id="eye" cx="0.5" cy="0.5" r="0.5">
      <stop offset="0" stop-color="#fff7e8"/>
      <stop offset="0.5" stop-color="#f0a23a"/>
      <stop offset="1" stop-color="#e2603a"/>
    </radialGradient>
  </defs>
  <rect width="64" height="64" rx="13" fill="#0e0d0c"/>
  <path d="M32 6 53 18 53 46 32 58 11 46 11 18Z" fill="url(#badge)" opacity="0.15"/>
  <path d="M21 22c-5-2-9-6-10-12 5 1 9 3 12 7M43 22c5-2 9-6 10-12-5 1-9 3-12 7"
        fill="none" stroke="#f0a23a" stroke-width="2.6" stroke-linecap="round" stroke-linejoin="round"/>
  <path d="M32 14c-9 0-15 6-15 15 0 5 2 8 5 11l1 7 4-2 5 2 5-2 4 2 1-7c3-3 5-6 5-11 0-9-6-15-15-15Z"
        fill="#16140f" stroke="url(#badge)" stroke-width="2.4" stroke-linejoin="round"/>
  <path d="M22 30l8 3-2 5-7-3z" fill="url(#eye)"/>
  <path d="M42 30l-8 3 2 5 7-3z" fill="url(#eye)"/>
  <path d="M30 40h4l-2 5zM27 44l2 5M37 44l-2 5M32 45l0 5"
        stroke="#f0a23a" stroke-width="2" stroke-linecap="round" fill="none"/>
</svg>
